<svg width="364" height="104" viewBox="0 0 364 104" fill="none" xmlns="http://www.w3.org/2000/svg">
<path d="M54.6994 53.9004C46.2994 53.9004 39.3994 60.7004 39.3994 69.2004V103.3L86.5994 53.9004H54.6994Z" fill="white"/>
<path d="M23.4 53.9004C29.6 53.9004 34.6 58.9004 34.6 65.1004V90.1004L0 53.9004H23.4Z" fill="white"/>
<path d="M54.6994 49.4C46.2994 49.4 39.3994 42.6 39.3994 34.1V0L86.5994 49.4H54.6994Z" fill="white"/>
<path d="M23.4 49.3992C29.6 49.3992 34.6 44.3992 34.6 38.1992V13.1992L0 49.3992H23.4Z" fill="white"/>
<path d="M111.825 81.3539H108.792L107.423 78.615H99.4996L98.1302 81.3539H95L101.945 68.1484H104.977L111.825 81.3539ZM103.412 70.8873L100.673 76.0717H106.151L103.412 70.8873Z" fill="white"/>
<path d="M124.443 71.8678C123.759 70.8896 122.781 70.4984 121.313 70.4984H118.183C116.716 70.4984 115.933 70.9875 115.933 71.77C115.933 72.3569 116.325 72.846 117.792 73.0416L122.976 73.5307C125.813 74.0198 126.693 75.6827 126.595 77.5413C126.595 79.8889 124.737 81.454 121.509 81.454H118.281C115.346 81.454 113.39 80.4758 112.607 78.6173L115.053 77.0522C115.738 78.5195 116.814 79.0086 118.379 79.0086H121.607C123.074 79.0086 123.857 78.5195 123.857 77.6391C123.857 76.7587 123.27 76.3675 122.096 76.1718L116.618 75.4871C114.075 75.0958 113.097 73.6285 113.097 71.8678C113.097 69.4224 114.955 67.9551 118.281 67.9551H121.313C123.759 67.9551 125.422 68.7376 126.302 70.1071L124.443 71.8678Z" fill="white"/>
<path d="M139.606 71.8678C138.921 70.8896 137.943 70.4984 136.475 70.4984H133.345C131.878 70.4984 131.095 70.9875 131.095 71.77C131.095 72.3569 131.487 72.846 132.954 73.0416L138.138 73.5307C140.975 74.0198 141.855 75.6827 141.758 77.5413C141.758 79.8889 139.899 81.454 136.671 81.454H133.443C130.508 81.454 128.552 80.4758 127.77 78.6173L130.215 77.0522C130.9 78.5195 131.976 79.0086 133.541 79.0086H136.769C138.236 79.0086 139.019 78.5195 139.019 77.6391C139.019 76.7587 138.432 76.3675 137.258 76.1718L131.78 75.4871C129.237 75.0958 128.259 73.6285 128.259 71.8678C128.259 69.4224 130.117 67.9551 133.443 67.9551H136.475C138.921 67.9551 140.584 68.7376 141.464 70.1071L139.606 71.8678Z" fill="white"/>
<path d="M156.332 68.1484V70.7895H146.941V73.4306H155.354V75.9739H146.941V78.615H156.332V81.2561H144.007V68.1484H156.332Z" fill="white"/>
<path d="M171.494 68.1484V70.8873H166.114V81.2561H163.18V70.8873H157.8V68.1484H171.494Z" fill="white"/>
<path d="M184.308 71.8678C183.624 70.8896 182.743 70.4984 181.178 70.4984H178.048C176.581 70.4984 175.798 70.9875 175.798 71.77C175.798 72.3569 176.19 72.846 177.657 73.0416L182.841 73.5307C185.678 74.0198 186.558 75.6827 186.46 77.5413C186.46 79.8889 184.602 81.454 181.374 81.454H178.244C175.309 81.454 173.353 80.4758 172.57 78.6173L175.016 77.0522C175.7 78.5195 176.776 79.0086 178.342 79.0086H181.57C183.037 79.0086 183.819 78.5195 183.819 77.6391C183.819 76.7587 183.232 76.3675 182.059 76.1718L176.581 75.4871C174.038 75.0958 173.059 73.6285 173.059 71.8678C173.059 69.4224 174.918 67.9551 178.244 67.9551H181.276C183.722 67.9551 185.384 68.7376 186.265 70.1071L184.308 71.8678Z" fill="white"/>
<path d="M202.894 75.4848L208.567 68.2463H211.404V81.3539H208.567V72.6481L203.774 78.9084H202.209L197.416 72.6481V81.3539H194.579V68.1484H197.318L202.894 75.4848Z" fill="white"/>
<path d="M230.185 81.3576H227.055L225.686 78.6187H217.762L216.393 81.3576H213.263L220.208 68.25H223.24L230.185 81.3576ZM221.675 70.8911L218.936 76.0755H224.414L221.675 70.8911Z" fill="white"/>
<path d="M243.879 68.1484H246.716V81.2561H244.075L234.88 72.4524V81.2561H232.043V68.1484H234.684L243.879 76.9521V68.1484Z" fill="white"/>
<path d="M265.497 81.3539H262.367L260.997 78.615H253.074L251.704 81.3539H248.574L255.519 68.1484H258.552L265.497 81.3539ZM257.084 70.8873L254.345 76.0717H259.823L257.084 70.8873Z" fill="white"/>
<path d="M279.583 71.77C278.703 70.9875 277.627 70.694 276.062 70.694H273.127C270.388 70.694 268.823 72.2591 268.823 74.8024C268.823 77.2478 270.388 78.9107 273.029 78.9107H275.768C277.431 78.9107 278.703 78.4216 279.094 77.3456V76.6609H275.377V74.4111H281.539V81.3562H279.779L279.583 79.8889C278.801 81.0627 277.431 81.454 275.572 81.454H272.834C268.53 81.454 265.986 78.8129 265.986 74.7046C265.986 70.694 268.627 67.9551 273.127 67.9551H275.964C278.214 67.9551 279.877 68.4442 281.148 69.618L279.583 71.77Z" fill="white"/>
<path d="M296.309 68.1484V70.7895H286.919V73.4306H295.331V75.9739H286.919V78.615H296.309V81.2561H283.984V68.1484H296.309Z" fill="white"/>
<path d="M307.265 75.4848L312.938 68.2463H315.775V81.3539H312.938V72.6481L308.145 78.9084H306.58L301.787 72.6481V81.3539H298.95V68.1484H301.689L307.265 75.4848Z" fill="white"/>
<path d="M331.035 68.1484V70.7895H321.645V73.4306H330.057V75.9739H321.645V78.615H331.035V81.2561H318.71V68.1484H331.035Z" fill="white"/>
<path d="M345.316 68.1484H348.153V81.2561H345.512L336.317 72.4524V81.2561H333.48V68.1484H336.122L345.316 76.9521V68.1484Z" fill="white"/>
<path d="M364 68.1484V70.8873H358.62V81.2561H355.686V70.8873H350.306V68.1484H364Z" fill="white"/>
<path d="M161.852 59.7175H151.817L146.141 51.9735H110.711L105.024 59.7175H95L124.025 21.1621H132.827L161.852 59.7175ZM128.42 28.4595L116.058 44.8288H140.794L128.42 28.4595Z" fill="white"/>
<path d="M227.599 59.7175H217.505L209.761 48.0721H177.398V59.7175H168.538V21.1621H209.279C222.205 21.1621 226.6 27.1199 226.6 34.7581V34.8169C226.6 40.1049 224.368 44.6173 218.375 46.7325L227.599 59.7175ZM177.398 29.0706V40.4927H209.279C215.296 40.4927 217.693 38.542 217.693 34.8169V34.7581C217.693 31.0213 215.343 29.0706 209.279 29.0706H177.398Z" fill="white"/>
<path d="M288.938 32.2458C286.435 29.6371 282.816 29.073 277.575 29.073H254.79C246.376 29.073 241.805 32.9744 241.805 40.4363V40.4951C241.805 47.91 246.376 51.7996 254.79 51.7996H277.575C282.922 51.7996 286.482 51.1886 288.938 48.6268L294.344 54.9842C290.443 58.7093 285.601 59.8844 277.575 59.8844H254.79C240.806 59.8844 232.897 52.916 232.897 40.4951V40.4363C232.897 27.9567 240.806 21 254.79 21H277.575C285.484 21 290.384 22.1164 294.344 25.9002L288.938 32.2458Z" fill="white"/>
<path d="M352.854 36.6031V21.1621H362.044V59.7175H352.854V44.4998H310.621V59.7175H301.432V21.1621H310.621V36.6031H352.854Z" fill="white"/>
</svg>
