<svg width="372" height="104" viewBox="0 0 372 104" fill="none" xmlns="http://www.w3.org/2000/svg">
<path d="M54.6994 53.9004C46.2994 53.9004 39.3994 60.7004 39.3994 69.2004V103.3L86.5994 53.9004H54.6994Z" fill="white"/>
<path d="M23.4 53.9004C29.6 53.9004 34.6 58.9004 34.6 65.1004V90.1004L0 53.9004H23.4Z" fill="white"/>
<path d="M54.6994 49.4C46.2994 49.4 39.3994 42.6 39.3994 34.1V0L86.5994 49.4H54.6994Z" fill="white"/>
<path d="M23.4 49.3992C29.6 49.3992 34.6 44.3992 34.6 38.1992V13.1992L0 49.3992H23.4Z" fill="white"/>
<path d="M113.3 75.6992H110.2L108.8 72.8992H100.7L99.2996 75.6992H96.0996L103.2 62.1992H106.3L113.3 75.6992ZM104.7 64.9992L101.9 70.2992H107.5L104.7 64.9992Z" fill="white"/>
<path d="M126.2 66C125.5 65 124.5 64.6 123 64.6H119.8C118.3 64.6 117.5 65.1 117.5 65.9C117.5 66.5 117.9 67 119.4 67.2L124.7 67.7C127.6 68.2 128.5 69.9 128.4 71.8C128.4 74.2 126.5 75.8 123.2 75.8H119.9C116.9 75.8 114.9 74.8 114.1 72.9L116.6 71.3C117.3 72.8 118.4 73.3 120 73.3H123.3C124.8 73.3 125.6 72.8 125.6 71.9C125.6 71 125 70.6 123.8 70.4L118.2 69.7C115.6 69.3 114.6 67.8 114.6 66C114.6 63.5 116.5 62 119.9 62H123C125.5 62 127.2 62.8 128.1 64.2L126.2 66Z" fill="white"/>
<path d="M141.7 66C141 65 140 64.6 138.5 64.6H135.3C133.8 64.6 133 65.1 133 65.9C133 66.5 133.4 67 134.9 67.2L140.2 67.7C143.1 68.2 144 69.9 143.9 71.8C143.9 74.2 142 75.8 138.7 75.8H135.4C132.4 75.8 130.4 74.8 129.6 72.9L132.1 71.3C132.8 72.8 133.9 73.3 135.5 73.3H138.8C140.3 73.3 141.1 72.8 141.1 71.9C141.1 71 140.5 70.6 139.3 70.4L133.7 69.7C131.1 69.3 130.1 67.8 130.1 66C130.1 63.5 132 62 135.4 62H138.5C141 62 142.7 62.8 143.6 64.2L141.7 66Z" fill="white"/>
<path d="M158.799 62.1992V64.8992H149.199V67.5992H157.799V70.1992H149.199V72.8992H158.799V75.5992H146.199V62.1992H158.799Z" fill="white"/>
<path d="M174.3 62.1992V64.9992H168.8V75.5992H165.8V64.9992H160.3V62.1992H174.3Z" fill="white"/>
<path d="M187.399 66C186.699 65 185.799 64.6 184.199 64.6H180.999C179.499 64.6 178.699 65.1 178.699 65.9C178.699 66.5 179.099 67 180.599 67.2L185.899 67.7C188.799 68.2 189.699 69.9 189.599 71.8C189.599 74.2 187.699 75.8 184.399 75.8H181.199C178.199 75.8 176.199 74.8 175.399 72.9L177.899 71.3C178.599 72.8 179.699 73.3 181.299 73.3H184.599C186.099 73.3 186.899 72.8 186.899 71.9C186.899 71 186.299 70.6 185.099 70.4L179.499 69.7C176.899 69.3 175.899 67.8 175.899 66C175.899 63.5 177.799 62 181.199 62H184.299C186.799 62 188.499 62.8 189.399 64.2L187.399 66Z" fill="white"/>
<path d="M206.399 69.6992L212.199 62.2992H215.099V75.6992H212.199V66.7992L207.299 73.1992H205.699L200.799 66.7992V75.6992H197.899V62.1992H200.699L206.399 69.6992Z" fill="white"/>
<path d="M234.3 75.7008H231.1L229.7 72.9008H221.6L220.2 75.7008H217L224.1 62.3008H227.2L234.3 75.7008ZM225.6 65.0008L222.8 70.3008H228.4L225.6 65.0008Z" fill="white"/>
<path d="M248.299 62.1992H251.199V75.5992H248.499L239.099 66.5992V75.5992H236.199V62.1992H238.899L248.299 71.1992V62.1992Z" fill="white"/>
<path d="M270.4 75.6992H267.2L265.8 72.8992H257.7L256.3 75.6992H253.1L260.2 62.1992H263.3L270.4 75.6992ZM261.8 64.9992L259 70.2992H264.6L261.8 64.9992Z" fill="white"/>
<path d="M284.799 65.9C283.899 65.1 282.799 64.8 281.199 64.8H278.199C275.399 64.8 273.799 66.4 273.799 69C273.799 71.5 275.399 73.2 278.099 73.2H280.899C282.599 73.2 283.899 72.7 284.299 71.6V70.9H280.499V68.6H286.799V75.7H284.999L284.799 74.2C283.999 75.4 282.599 75.8 280.699 75.8H277.899C273.499 75.8 270.899 73.1 270.899 68.9C270.899 64.8 273.599 62 278.199 62H281.099C283.399 62 285.099 62.5 286.399 63.7L284.799 65.9Z" fill="white"/>
<path d="M301.9 62.1992V64.8992H292.3V67.5992H300.9V70.1992H292.3V72.8992H301.9V75.5992H289.3V62.1992H301.9Z" fill="white"/>
<path d="M313.1 69.6992L318.9 62.2992H321.8V75.6992H318.9V66.7992L314 73.1992H312.4L307.5 66.7992V75.6992H304.6V62.1992H307.4L313.1 69.6992Z" fill="white"/>
<path d="M337.4 62.1992V64.8992H327.8V67.5992H336.4V70.1992H327.8V72.8992H337.4V75.5992H324.8V62.1992H337.4Z" fill="white"/>
<path d="M351.999 62.1992H354.899V75.5992H352.199L342.799 66.5992V75.5992H339.899V62.1992H342.599L351.999 71.1992V62.1992Z" fill="white"/>
<path d="M371.1 62.1992V64.9992H365.6V75.5992H362.6V64.9992H357.1V62.1992H371.1Z" fill="white"/>
<path d="M147.8 52.1992H139.9L135.4 46.0992H107.4L102.9 52.1992H95L117.9 21.6992H124.9L147.8 52.1992ZM121.4 27.4992L111.6 40.3992H131.1L121.4 27.4992Z" fill="white"/>
<path d="M199.7 52.1992H191.7L185.6 42.9992H185.2H160V52.1992H153V21.6992H185.2C195.4 21.6992 198.9 26.3992 198.9 32.3992C198.9 36.5992 197.1 40.0992 192.4 41.7992L199.7 52.1992ZM160.1 27.9992V36.9992H185.3C190.1 36.9992 191.9 35.4992 191.9 32.4992C191.9 29.5992 190 27.9992 185.3 27.9992H160.1Z" fill="white"/>
<path d="M248.2 30.4996C246.2 28.3996 243.4 27.9996 239.2 27.9996H221.2C214.6 27.9996 210.9 31.0996 210.9 36.9996C210.9 42.8996 214.5 45.8996 221.2 45.8996H239.2C243.4 45.8996 246.2 45.3996 248.2 43.3996L252.5 48.3996C249.4 51.2996 245.6 52.2996 239.3 52.2996H221.3C210.3 52.2996 204 46.7996 204 36.9996C204 27.0996 210.2 21.5996 221.3 21.5996H239.3C245.5 21.5996 249.4 22.4996 252.5 25.4996L248.2 30.4996Z" fill="white"/>
<path d="M300.4 21.6992V28.2992H281.7V52.1992H274.4V28.2992H255.7V21.6992H300.4Z" fill="white"/>
<path d="M306.2 52.1992V21.6992H313.5V52.1992H306.2Z" fill="white"/>
<path d="M363.9 30.4996C361.9 28.3996 359.1 27.9996 354.9 27.9996H336.9C330.3 27.9996 326.6 31.0996 326.6 36.9996C326.6 42.8996 330.2 45.8996 336.9 45.8996H354.9C359.1 45.8996 361.9 45.3996 363.9 43.3996L368.2 48.3996C365.1 51.2996 361.3 52.2996 355 52.2996H337C326 52.2996 319.7 46.7996 319.7 36.9996C319.7 27.0996 325.9 21.5996 337 21.5996H355C361.2 21.5996 365.1 22.4996 368.2 25.4996L363.9 30.4996Z" fill="white"/>
</svg>
